<svg width="313" height="29" xmlns="http://www.w3.org/2000/svg" xmlns:xlink="http://www.w3.org/1999/xlink"><defs><path id="a" d="M0 29h312.719V.581H0z"/></defs><g fill="none" fill-rule="evenodd"><path fill="#FFF" d="M111.467 19.456h-2.08v-1.142h5.616v1.142h-2.082v6.118h-1.454zm2.623 6.119h1.51l.634-1.668h2.943l.625 1.668h1.611l-2.85-7.26h-1.645l-2.829 7.26zm4.681-2.808h-2.123l1.05-2.997h.022l1.051 2.997zm3.192 2.807h1.456v-7.26h-1.456z"/><g transform="translate(0 -.58)"><path d="M124.595 26.155h1.457v-2.758h.615c1.56 0 2.798-.613 2.798-2.309 0-1.737-1.446-2.193-3.029-2.193h-1.841v7.26zm1.457-6.118h.51c.749 0 1.383.292 1.383 1.136 0 .84-.655 1.081-1.383 1.081h-.51v-2.217zm4.191-1.142h4.287v1.142h-2.83v1.792h2.59v1.143h-2.59v2.037h2.85v1.146h-4.307z" fill="#FFF"/><mask id="b" fill="#fff"><use xlink:href="#a"/></mask><path fill="#FFF" mask="url(#b)" d="M135.642 26.155h1.458v-7.26h-1.458zm6.399 0h1.455v-3.018h.468c.613 0 .801.21 1.01.751l.873 2.267h1.623l-1.163-2.839c-.148-.324-.377-.719-.773-.75v-.02c.927-.127 1.5-.832 1.5-1.687 0-2.019-1.863-1.964-3.424-1.964h-1.569v7.26zm1.455-6.118h.481c.727 0 1.538.072 1.538.948 0 .903-.822 1.01-1.538 1.01h-.48v-1.958zm4.016 6.118h1.509l.633-1.667h2.945l.627 1.667h1.609l-2.85-7.26h-1.643l-2.83 7.26zm4.682-2.808h-2.122l1.049-2.996h.021l1.052 2.996zm3.194 2.808h1.455v-2.758h.615c1.558 0 2.795-.613 2.795-2.309 0-1.737-1.444-2.193-3.023-2.193h-1.842v7.26zm1.455-6.118h.51c.749 0 1.383.292 1.383 1.136 0 .84-.654 1.081-1.382 1.081h-.511v-2.217zm4.07 6.118h1.456v-7.26h-1.456zm2.754 0h1.986c2.228 0 4.194-.749 4.194-3.63 0-2.884-1.966-3.63-4.194-3.63h-1.986v7.26zm1.455-6.118h.814c1.215 0 2.392.905 2.392 2.487 0 1.58-1.177 2.485-2.392 2.485h-.814v-4.972zm9.748 0h-2.08v-1.142h5.617v1.142h-2.082v6.118h-1.456zm4.078 6.118h1.457v-3.018h.469c.612 0 .799.21 1.008.751l.875 2.267h1.621l-1.163-2.839c-.148-.324-.376-.719-.772-.75v-.02c.927-.127 1.5-.832 1.5-1.687 0-2.019-1.864-1.964-3.425-1.964h-1.57v7.26zm1.457-6.118h.48c.726 0 1.538.072 1.538.948 0 .903-.822 1.01-1.538 1.01h-.48v-1.958zm4.015 6.118h1.511l.633-1.667h2.943l.623 1.667h1.613l-2.85-7.26h-1.644l-2.83 7.26zm4.682-2.808h-2.122l1.05-2.996h.018l1.054 2.996zm3.245-4.452h1.788l2.769 5.43h.019v-5.43h1.394v7.26h-1.78l-2.776-5.43h-.021v5.43h-1.393zm11.224 1.331a3.77 3.77 0 0 0-1.476-.313c-.5 0-1.145.218-1.145 1.008 0 1.26 3.183.73 3.183 3.163 0 1.593-1.262 2.195-2.728 2.195-.788 0-1.143-.105-1.86-.282l.135-1.308c.498.265 1.07.448 1.643.448.553 0 1.29-.282 1.29-.94 0-1.381-3.183-.81-3.183-3.212 0-1.625 1.258-2.216 2.537-2.216a5.45 5.45 0 0 1 1.738.26l-.134 1.197zm1.497 5.929h1.457v-7.26h-1.457zm4.078-6.118h-2.08v-1.142h5.617v1.142h-2.081v6.118h-1.456zm12.119 6.013c-.53.125-1.104.23-1.652.23-2.352 0-3.987-1.176-3.987-3.63 0-2.488 1.52-3.881 3.987-3.881a4.77 4.77 0 0 1 1.642.302l-.103 1.226c-.551-.311-1.053-.383-1.574-.383-1.498 0-2.432 1.14-2.432 2.632 0 1.475.915 2.59 2.467 2.59.57 0 1.248-.126 1.59-.304l.062 1.219zm.458-3.548c0 2.227 1.228 3.777 3.558 3.777 2.297 0 3.556-1.582 3.556-3.777 0-2.194-1.28-3.733-3.556-3.733-2.31 0-3.558 1.507-3.558 3.733m1.52 0c0-1.278.59-2.588 2.038-2.588 1.445 0 2.039 1.31 2.039 2.588 0 1.312-.551 2.635-2.04 2.635-1.487 0-2.036-1.323-2.036-2.635m6.542 3.653h1.454v-3.018h.47c.611 0 .8.21 1.01.751l.873 2.267h1.621l-1.164-2.839c-.146-.324-.375-.719-.77-.75v-.02c.926-.127 1.497-.832 1.497-1.687 0-2.019-1.86-1.964-3.423-1.964h-1.568v7.26zm1.454-6.118h.48c.726 0 1.54.072 1.54.948 0 .903-.822 1.01-1.54 1.01h-.48v-1.958zm4.64 6.118h1.457v-2.758h.614c1.56 0 2.798-.613 2.798-2.309 0-1.737-1.447-2.193-3.028-2.193h-1.84v7.26zm1.457-6.118h.51c.75 0 1.383.292 1.383 1.136 0 .84-.655 1.081-1.383 1.081h-.51v-2.217zm3.838 2.465c0 2.227 1.229 3.777 3.559 3.777 2.298 0 3.556-1.582 3.556-3.777 0-2.194-1.277-3.733-3.556-3.733-2.31 0-3.559 1.507-3.559 3.733m1.521 0c0-1.278.592-2.588 2.038-2.588 1.445 0 2.039 1.31 2.039 2.588 0 1.312-.552 2.635-2.039 2.635-1.489 0-2.038-1.323-2.038-2.635m6.542 3.653h1.457v-3.018h.466c.613 0 .802.21 1.012.751l.874 2.267h1.621l-1.165-2.839c-.146-.324-.376-.719-.77-.75v-.02c.927-.127 1.499-.832 1.499-1.687 0-2.019-1.863-1.964-3.424-1.964h-1.57v7.26zm1.457-6.118h.477c.728 0 1.54.072 1.54.948 0 .903-.821 1.01-1.54 1.01h-.477v-1.958zm4.013 6.118h1.511l.632-1.667h2.945l.623 1.667h1.613l-2.85-7.26h-1.642l-2.832 7.26zm4.684-2.808h-2.124l1.05-2.996h.021l1.053 2.996zm3.807-3.31h-2.079v-1.142h5.618v1.142h-2.082v6.118h-1.457zm4.08 6.118h1.454v-7.26h-1.454zm2.4-3.653c0 2.227 1.229 3.777 3.56 3.777 2.297 0 3.557-1.582 3.557-3.777 0-2.194-1.279-3.733-3.557-3.733-2.31 0-3.56 1.507-3.56 3.733m1.52 0c0-1.278.593-2.588 2.04-2.588 1.445 0 2.039 1.31 2.039 2.588 0 1.312-.554 2.635-2.039 2.635-1.489 0-2.04-1.323-2.04-2.635m6.595-3.607h1.79l2.765 5.43h.021v-5.43h1.395v7.26h-1.778l-2.779-5.43h-.019v5.43h-1.395zM181.689 8.143v-1.18h.83l.557-1.19h-1.387V3.79h-1.711v1.984h-1.33v1.19h1.33v3.243a7.67 7.67 0 0 1-1.34 1.042v1.733c.325-.139.805-.435 1.34-.859v2.613c0 .18-.077.46-.411.46h-.802v1.216h1.575c.925 0 1.419-.572 1.349-1.345v-4.719a7.37 7.37 0 0 0 1.172-2.204h-1.172zm-51.083-.153h-4.224v1.483h4.224v4.592c0 .522-.21.78-.704.78h-3.681v1.528h4.675c1.539 0 1.903-.798 1.903-2.008V3.783h-2.193V7.99zM120.24 9.906h-7.141l-.627 1.291h7.044c1.575 0 1.966.978 1.966 1.895 0 1.152-.57 2.025-1.944 2.025h-7.334v-5.21h-2.242v6.464h10.278c1.816 0 3.47-.942 3.47-3.248 0-2.3-1.621-3.217-3.47-3.217m188.692 1.582c0-1.496-.948-2.554-2.597-2.554h-4.06l-.56 1.196h3.953c.982 0 1.39.534 1.39 1.317 0 .783-.381 1.431-1.39 1.431h-4.272V8.925h-1.891v5.14h6.83c1.618 0 2.597-1.077 2.597-2.577M225.47 6.28v1.088c0 .951.499 1.514 1.453 1.514h.568l.497-1.115h-.329c-.265-.007-.405-.19-.405-.412V5.896c0-.977-.334-1.693-1.958-1.693h-2.745l-.489 1.055h2.568c.743 0 .84.454.84 1.021m-5.376 2.599h1.738V4.203h-1.738zm-98.229-4.674h-2.349c.828.896 1.364 1.634 1.81 2.399.318.548.237 1-.503 1h-8.952l2.457-3.792h-2.452s-1.69 2.616-2.25 3.363c-.58.773-.258 1.681.703 1.681h12.01c1.212 0 1.909-.878 1.35-2.049-.37-.774-1.241-1.997-1.824-2.602m14.995 9.861V9.473h3.843l.734-1.483h-4.576V3.783h-2.18v10.582c0 1.211.366 2.008 1.905 2.008h4.298l.733-1.528h-4.052c-.492 0-.704-.259-.704-.78m15.498-6.261h5.516l.74-1.54h-6.36v-2.46h-2.332v2.46h-6.002v1.54h5.912c-.492 3.373-2.427 5.756-6.242 7.01v1.72c4.82-.967 7.139-4.326 7.502-5.681.59 1.733 2.809 4.49 6.583 5.727l1.487-1.486c-3.726-.8-6.7-4.028-6.804-7.29m141.291 3.872h-2.517c.803 1.132 1.828 2.192 2.712 3.458h-8.412c1.387-1.413 3.23-3.583 4.215-6.69h-2.331c-.782 2.633-3.273 5.21-3.911 5.908-.836.906-.32 1.963.96 1.973h10.678c1.05-.01 1.469-.91.824-1.755-.866-1.132-1.261-1.598-2.217-2.894m-28.411 4.683h1.671V3.807h-1.671zm3.947-7.416s.648-2.2.885-2.973c.487-1.589-.19-2.175-1.38-2.175h-.993l-.56 1.133h.899c.223-.009.549.131.403.79-.078.347-.605 2.155-.914 3.112-.158.475-.072.941.095 1.178.323.456 1.067 2.208 1.169 2.86.146.922-.086 1.367-1.477 1.367l.463 1.188c1.088.108 2.695.016 2.695-2.205 0-1.237-.791-2.707-1.287-3.546-.091-.158-.076-.54.002-.729m7.613 4.741c2.799-1.63 3.318-2.787 3.318-2.787h-1.886c-.371.564-1.653 1.474-2.168 1.69-.308-.47-.672-1.407-.815-2.306h1.244c1.87 0 2.998-1.327 2.998-3.05 0-1.731-1.096-3.034-2.998-3.034h-2.705l-.533 1.067h2.592c1.296 0 1.838.86 1.838 1.904 0 1.045-.502 2.054-1.838 2.054h-2.842V7.761h3.789l.486-1.08h-4.275V4.21h-1.814v10.875c0 .772.498 1.273 1.318 1.273h2.595l.546-1.127h-2.342c-.186 0-.314-.075-.314-.264V10.28h.509c1.006 4.163 3.238 5.575 6.113 6.18l.682-1.11c-.859-.049-2.927-.932-3.498-1.668m32.387-7.107H299.14v1.18h9.519zm-82.157 6.118c1.397-1.552 1.025-3.188-1.25-3.188h-5.458v1.075h4.746c.862 0 .868.58.505 1.096-.334.474-1.016 1.348-1.913 1.913-.65-.605-1.151-1.467-1.41-2.58h-1.966c.198 1.196 1.044 2.62 2.024 3.397-.719.348-1.713.635-2.724.84v1.21c1.09-.17 2.666-.556 4.024-1.207 1.319.672 2.683 1.047 4.507 1.162l.454-1.109c-1.024-.085-2.464-.317-3.582-.835.849-.553 1.32-.972 2.043-1.774m-9.763-1.633h-1.885V8.405h1.323l.514-1.023h-1.837V3.8h-1.636v12.572h1.636v-4.27h1.367zm26.563-5.244c-.423-1.435-1.129-1.613-2.4-1.613h-1.802l-.554 1.136h1.78c.55 0 .895.236 1.127 1.042.354 1.21.74 2.185 1.431 2.957a3.612 3.612 0 0 0-.81-.079h-6.298c1.024-.964 2.186-2.93 2.314-5.047h-2.025c-.129 1.842-.998 4.068-2.412 4.967v1.433c.24.014 1.47-.712 1.764-1.072v.842h2.158c-.173 2.23-1.422 4.227-3.176 4.938v1.162c2.586-.248 4.795-2.804 5.271-6.1h1.403c.351 0 .685.103.92.634.275.634.184 2.807-.137 3.59-.194.481-.464.564-1.022.564h-2.402l.658 1.198h2.652c.948 0 1.492-.424 1.944-1.197.584-.99.69-3.52.191-4.998.172.108.353.213.551.312l.847-1.106c-1.543-.84-1.58-2.232-1.973-3.563m50.52.05c-.421-1.436-1.13-1.615-2.4-1.615h-4.004l-.458 1.137h3.763c.547 0 1.032.235 1.25 1.043.64 2.334 2.293 3.883 3.227 4.202l1.166-1.02c-1.314-.72-2.152-2.419-2.543-3.747m-7.354-1.706h-2.023c-.13 1.84-1.415 4.406-2.83 5.302v1.551c2.171-.305 4.742-4.203 4.853-6.854m-32.461-.364H252.2c-.222.402-.254.488-.503.82h-4.01v1.13H251c-1.093 1.702-1.874 2.45-3.487 3.636v1.41c.616-.222 1.421-.691 2.015-1.114v6.705h1.914v-2.654h7.287l.54-1.08h-7.827v-1.482h7.287l.54-1.105h-7.827V8.64h6.416c1.612 0 1.85 1.269 1.85 3.035v.312c0 1.766-.165 3.203-1.514 3.203h-2.103l.7 1.18h1.495c2.062 0 3.314-.93 3.314-4.354v-.341c0-2.685-.888-4.202-3.259-4.202h-6.365c.574-.6.941-1.087 1.356-1.728h8.41l.526-1.131h-8.253c.142-.181.344-.571.521-.82"/><path d="M307.99 4.216h-9.307V5.37h8.829c2.717 0 3.274 1.915 3.274 4.498v.477c0 2.424-.067 4.818-3.307 4.818h-1.852l.49 1.198h1.93c3.176 0 4.672-1.28 4.672-5.978v-.515c0-3.834-1.63-5.652-4.728-5.652m-91.459-.403h-.486l-.46 1.012h.544c1.347 0 1.41.518 1.41 5.41 0 3.916-.113 5.188-.754 5.188h-.56l.607 1.02h.203c1.75 0 2.14-.837 2.14-6.209 0-5.919-.35-6.42-2.643-6.42m16.245-.019c-.146 2.075-1.067 4.154-2.088 5.243v1.717c.413-.314.523-.393.898-.777v6.376h1.957V7.887c.7-1.053 1.182-2.732 1.312-4.092h-2.08zm-44.293 5.834h2.429c-.145.498-.495.929-1.131.929h-1.298v-.93zm0-1.971h1.315c.637 0 .992.412 1.128.903h-2.443v-.903zm1.912 3.93c1.202 0 1.974-.886 2.17-1.96h.466l.48-1.067h-.941c-.184-1.078-.943-1.966-2.175-1.966h-1.912v-.897h4.104l.503-1.058h-4.607v-.848H186.8v.848h-3.453v1.058h3.453v.897h-2.951v1.063h2.95v.903h-3.477v1.068h3.478v.929h-2.951v1.03h2.95v3.645c-.865-.068-1.665-.734-1.99-1.345.276-.622.408-1.337.457-1.814h-1.702c-.09 1.327-.521 2.377-1.414 3.035v1.416c.795-.314 1.488-.964 1.977-1.572.496.675 1.302 1.405 2.97 1.405h5.7l.519-1.121h-4.831V13.79h3.424l.504-1.054h-3.928v-1.15h1.912zm-23.458-.485c-1.927 1.106-4.242 1.48-5.526 1.696v1.351c1.245-.245 3.549-.64 5.526-1.526v-1.52zm5.644-3.427l-1.67-.003.572-1.762h.945c1.332 0 .568 1.765.153 1.765zm-3.387-.004l-1.89-.002.568-1.756 1.92-.003-.598 1.76zm-3.613-.002l-1.512-.002V5.914h2.11l-.598 1.756zm10.367-.002h-1.19c.77-1.626.132-2.885-1.697-2.885h-3.794l.281-.958h-1.992l-.31.958h-4.913v2.885h-.975v1.136h14.047l.543-1.136zm-14.837 8.77c2.047-.079 4.8-.766 6.388-1.6v-1.5c-1.453.844-3.993 1.695-6.388 1.867v1.233z" fill="#FFF" mask="url(#b)"/><path d="M175.48 9.713h-2.046c-.595.844-2.184 1.873-3.228 2.362a13.44 13.44 0 0 1-.49-.42c-.187-1.461-.686-2.292-2.578-2.292h-5.105v1.119h4.285c1.578 0 1.66 1.032 1.7 1.984.033.75.114 2.609-.073 3.976h1.714a25.99 25.99 0 0 0 .172-2.611c2.208 1.5 4.299 2.189 5.704 2.58l.914-1.115c-1.242-.312-3.147-1.04-5.044-2.326 1.317-.635 3.47-2.098 4.076-3.257m20.497-1.091h1.7c.259-.318.964-1.59 1.32-2.629h-1.32c.393-.631.855-1.456 1.115-2.184h-1.89c-.177.51-.65 1.62-1.28 2.672h1.397c-.263.687-.601 1.287-1.042 2.141" fill="#FFF" mask="url(#b)"/><path d="M202.075 11.318h2.227v-.795h-2.227v.795zm3.873-.796h1.555l.399-.996h-1.954v-.708h1.22c.625 0 1.131.412 1.131 1.206 0 .793-.481 1.294-1.131 1.294h-1.22v-.796zm0-5.379h2.415c.339 0 .482.209.482.48 0 .273-.132.522-.482.522h-2.415V5.143zm0 10.077v-1.151h3.478l.439-.991h-3.917v-.729h1.795c1.405 0 2.252-.996 2.252-2.293 0-1.297-.821-2.275-2.252-2.275h-1.795v-.648h3.042c.917 0 1.471-.65 1.471-1.498 0-.846-.538-1.487-1.471-1.487h-6.792l-.519.995h2.623v1.002h-2.82V4.17h-1.655v2.599h1.006v.364h3.469v.648h-1.526l-.497 1.037h2.023v.708h-2.227V7.791h-1.636v4.558h3.863v.729h-4.218v.991h4.218v1.148h-2.547c-1.783 0-2.656-1.708-2.656-2.994 0-1.982-.504-2.726-2.587-2.726h-.61v1.205h.421c.78 0 1.073.414 1.073 1.47v.693c0 1.243-.335 2.001-1.526 2.405v1.242c.721-.049 1.75-.251 2.779-1.631.952 1.119 1.728 1.465 3.375 1.465 2.354 0 5.419-.008 8.04 0l.442-1.129c-.079.005-2.336.005-4.558.003z" fill="#FFF" mask="url(#b)"/><path d="M10.456 15.307H5.907l-.788-1.744h5.467c.39 0 .578-.074.9-.396.3-.297 2.623-2.583 2.956-2.93.337-.348.63-.448 1.124-.448l7.028.002-3.246 3.268h-1.553c-.39 0-.54.01-.83.307-.199.207-2.414 2.4-2.834 2.828-.42.425-.677.526-1.143.526H7.34l-.426-.962h4.408c.333 0 .544-.063.774-.294l2.391-2.405h-.718c-.293 0-.514.035-.802.324a1721.2 1721.2 0 0 0-1.435 1.432c-.373.375-.612.492-1.075.492" fill="#006AB2" mask="url(#b)"/><path d="M20.12 12.855c-1.769 4.062-5.735 7.22-9.842 7.396-3.82.164-6.677-2.66-6.345-6.688H.02c-.316 4.938 3.086 8.761 8.392 8.761 5.814 0 12.082-4.305 14.121-11.867l-2.414 2.398z" fill="#7AB51D" mask="url(#b)"/><path d="M12.256 7.602h4.547l.791 1.74h-5.469c-.387 0-.576.076-.896.4-.3.295-2.627 2.58-2.959 2.926-.338.35-.628.452-1.123.452l-7.03-.003 3.25-3.269h1.551c.392 0 .54-.012.83-.308.197-.205 2.412-2.4 2.832-2.826.424-.427.68-.527 1.146-.527h5.65l.425.962h-4.486c-.332 0-.545.064-.776.294L8.15 9.848h.797c.293 0 .513-.033.802-.324.241-.237 1.133-1.132 1.436-1.432.371-.376.611-.49 1.072-.49" fill="#7AB51D" mask="url(#b)"/><path d="M2.595 10.049c1.764-4.061 5.729-7.216 9.839-7.391 3.82-.17 6.677 2.659 6.344 6.687h3.912C23.008 4.403 19.61.58 14.299.58 8.485.58 2.217 4.89.176 12.45l2.419-2.402z" fill="#006AB2" mask="url(#b)"/><path d="M86.783 10.728c0-2.604-1.875-4.687-5.44-4.687-4.093 0-6.724 2.513-6.724 6.15 0 2.653 1.543 4.785 5.44 4.785 3.917 0 6.724-1.893 6.724-6.248zm-3.604-.182c0 2.78-1.203 4.42-2.863 4.42-1.226.024-2.056-1.065-2.056-2.754 0-1.939 1.178-4.118 2.906-4.118 1.397 0 2.013 1.185 2.013 2.452zM73.004 6.003c.658 0 1.836.182 2.483.551L74.344 8.82c-.457-.242-1.08-.695-1.96-.695-1.287 0-1.925.557-2.423 2.653 0 0-.897 4.233-.962 4.623a2.643 2.643 0 0 0 .114 1.323h-3.91s1.826-8.464 1.935-9.01a2.834 2.834 0 0 0-.119-1.437h3.541c.748-.239 1.92-.273 2.444-.273zm-13.548.275c.126-.668-.147-1.414-.147-1.414L63.543 3.7l-.565 2.577h2.727l-.332 2.098h-2.819s-1.416 6.444-1.52 7.05c-.103.604.114 1.3.114 1.3h-3.897s2.144-10.128 2.205-10.446zm-3.894 8.227c-2.04.445-3.072.445-4.039.445-1.977 0-2.874-1.057-2.843-2.404h7.441c.093-.536.174-1.19.228-1.636.398-3.372-2.2-4.869-4.798-4.869-4.65 0-6.249 3.741-6.249 6.15 0 2.653 1.876 4.785 5.38 4.785 1.027 0 2.384-.065 3.861-.35l1.02-2.12zm-6.666-3.974c.234-1.354.912-2.423 2.588-2.385 1.322.027 1.75.91 1.557 2.385h-4.145zM30.967 6.276c.714-.265 2.133-.339 3.248-.134.872.158 1.63.568 2.072.957 1.11-.684 2.38-1.105 4.103-1.043 1.897.074 3.678.725 3.64 2.968-.012.676-.224 1.588-.452 2.477 0 0-.742 3.373-.824 3.862-.097.577.042 1.36.042 1.36H38.99l1.286-6.027c.12-.554.213-.996.237-1.409.035-.695-.442-1.179-1.223-1.179-1.502 0-1.819 1.218-2.059 2.344 0 0-1.024 4.59-1.073 4.964-.063.507.093 1.307.093 1.307h-3.844l1.241-6.027c.121-.554.24-1.049.26-1.466.02-.676-.268-1.122-1.14-1.122-1.53 0-1.9 1.163-2.168 2.31 0 0-.928 4.43-1.017 4.868-.119.575.02 1.437.02 1.437h-3.825s1.792-8.349 1.918-8.973c.182-.882-.029-1.474-.029-1.474h3.301zm53.397 13.719h1.52l.313-1.415h-1.523l-.31 1.415zm-1.4 6.719h1.453l1.222-5.727h-1.505l-1.17 5.727zm-1.293-1.543c-.6.329-1.26.608-1.98.608-.9 0-1.439-.55-1.306-1.464h3.878c.428-1.996.128-3.427-1.933-3.427-1.75 0-2.983 1.341-3.306 3.037-.41 1.854.466 2.883 2.376 2.883.785 0 1.42-.116 2.016-.42l.255-1.217zm-3.062-1.817c.22-.826.757-1.421 1.574-1.421.817 0 1.022.629.912 1.421H78.61zM69.602 29h1.495l.615-2.966h.026c.38.658.86.774 1.47.774 1.762 0 2.705-1.404 3.035-2.931.313-1.614-.014-2.989-1.736-2.989-.862 0-1.51.367-1.95.904h-.02l.177-.805h-1.406L69.6 29zm4.273-6.996c.943 0 .983 1.056.829 1.873-.154.77-.666 1.833-1.62 1.833-.965 0-1.061-1.039-.897-1.833.16-.852.751-1.873 1.688-1.873zM68.76 18.58h1.53l-.308 1.415h-1.525l.303-1.415zm-.53 2.407h1.537l-1.257 5.727h-1.465l1.186-5.727zm-1.934 2.353c.338-1.737-.216-2.452-1.93-2.452-.615 0-1.416.133-2.032.42l-.23 1.254c.565-.37 1.23-.629 1.868-.629.86 0 1.193.33.995 1.274h-.813c-.6 0-1.331.101-1.935.326-.647.296-1.205.761-1.386 1.604-.209 1.087.662 1.671 1.675 1.671.68 0 1.487-.313 1.953-.932h.023c-.027.137-.11.535-.118.838h1.296l.633-3.374zm-3.965 1.734c.166-.856 1.164-.949 1.817-.949h.644c-.087.403-.243.84-.56 1.112a1.46 1.46 0 0 1-1.115.542c-.544 0-.886-.221-.785-.705zM59.2 19.78h-2.194l.264-1.2h5.967l-.264 1.2H60.73l-1.47 6.934h-1.523l1.462-6.934z" fill="#FFF" mask="url(#b)"/><g mask="url(#b)"><path d="M98.531 3.783v23.025" fill="#FFF"/><path d="M98.531 3.783v23.025" stroke="#FFF" stroke-width=".483"/></g></g></g></svg>